<?xml version="1.0" standalone="no"?><!DOCTYPE svg PUBLIC "-//W3C//DTD SVG 1.1//EN" "http://www.w3.org/Graphics/SVG/1.1/DTD/svg11.dtd"><svg t="1665208486607" class="icon" viewBox="0 0 1024 1024" version="1.1" xmlns="http://www.w3.org/2000/svg" p-id="1500" xmlns:xlink="http://www.w3.org/1999/xlink" width="48" height="48"><path d="M472.14592 152.54016l413.55776 213.94944-16.82432 32.512L455.3216 185.05216z" fill="#5F5CE5" p-id="1501"></path><path d="M470.17984 156.24704l413.55776 213.94432-11.24352 21.73952-413.55776-213.94944z" fill="#7268F3" p-id="1502"></path><path d="M441.0368 194.816L328.8576 136.7552a12.88704 12.88704 0 0 1-5.5296-17.3056l20.3776-39.3728a12.88704 12.88704 0 0 1 17.3056-5.5296L473.2416 132.608a34.98496 34.98496 0 0 1 15.0016 47.2064c-8.9088 17.152-30.0032 23.9104-47.2064 15.0016z" fill="#5F5CE5" p-id="1503"></path><path d="M445.5936 186.7776L327.5776 125.7472c-3.2768-1.6896-4.5568-5.7344-2.8672-9.0112l19.6096-37.888a7.0656 7.0656 0 0 1 9.5744-3.0208L471.552 136.6528c13.824 7.168 19.2512 24.1664 12.0832 38.0416a28.1856 28.1856 0 0 1-38.0416 12.0832z" fill="#7268F3" p-id="1504"></path><path d="M481.0752 178.7904L332.4416 101.888l11.2128-21.6576 135.424 70.0416c7.3216 3.7888 9.8816 14.848 5.0176 23.4496l-3.0208 5.0688z" fill="#7A7AFC" p-id="1505"></path><path d="M835.4816 943.8208H186.6752c-56.576 0-102.4-45.824-102.4-102.4V429.5168c0-56.576 45.824-102.4 102.4-102.4h648.8064c56.576 0 102.4 45.824 102.4 102.4v411.904c0 56.576-45.824 102.4-102.4 102.4z" fill="#EFC30A" p-id="1506"></path><path d="M835.4816 943.8208H186.6752c-56.576 0-102.4-45.824-102.4-102.4V429.5168c0-56.576 45.824-102.4 102.4-102.4h648.8064c56.576 0 102.4 45.824 102.4 102.4v411.904c0 56.576-45.824 102.4-102.4 102.4z" fill="#EFC30A" p-id="1507"></path><path d="M796.7232 927.1808H186.6752c-56.576 0-102.4-45.824-102.4-102.4v-395.264c0-56.576 45.824-102.4 102.4-102.4h610.048c56.576 0 102.4 45.824 102.4 102.4v395.2128c0 56.576-45.824 102.4512-102.4 102.4512z" fill="#FDD70A" p-id="1508"></path><path d="M801.3824 327.1168H182.016c-53.9648 0-97.7408 45.824-97.7408 102.4v286.5664h814.848V429.5168c0-56.5248-43.776-102.4-97.7408-102.4z" fill="#F9DC62" p-id="1509"></path><path d="M84.2752 567.6544h814.848v157.5424H84.2752z" fill="#FFDC4A" p-id="1510"></path><path d="M688.9984 674.2528m-216.6272 0a216.6272 216.6272 0 1 0 433.2544 0 216.6272 216.6272 0 1 0-433.2544 0Z" fill="#EFC30A" p-id="1511"></path><path d="M674.1504 658.3808m-201.8304 0a201.8304 201.8304 0 1 0 403.6608 0 201.8304 201.8304 0 1 0-403.6608 0Z" fill="#FF973C" p-id="1512"></path><path d="M515.072 453.1712H187.5456c-12.8 0-23.1424-10.3424-23.1424-23.1424v-7.7312c0-2.816 2.304-5.12 5.12-5.12h359.3728c2.816 0 5.12 2.304 5.12 5.12v11.9296c0 10.4448-8.4992 18.944-18.944 18.944z" fill="#EFC30A" p-id="1513"></path><path d="M515.9936 446.1056H182.3744c-9.9328 0-18.0224-8.0384-18.0224-18.0224 0-9.9328 8.0384-18.0224 18.0224-18.0224h333.6192c9.9328 0 18.0224 8.0384 18.0224 18.0224 0 9.9328-8.0384 18.0224-18.0224 18.0224z" fill="#EC4D1E" p-id="1514"></path><path d="M520.6528 436.7872H177.7664c-7.3728 0-13.3632-5.9904-13.3632-13.3632s5.9904-13.3632 13.3632-13.3632h342.9376c7.3728 0 13.3632 5.9904 13.3632 13.3632a13.45024 13.45024 0 0 1-13.4144 13.3632z" fill="#F9603D" p-id="1515"></path><path d="M521.1648 420.4544H177.2544c-1.6896 0-3.1232-1.3824-3.1232-3.1232 0-1.6896 1.3824-3.1232 3.1232-3.1232h343.9104c1.6896 0 3.1232 1.3824 3.1232 3.1232 0 1.7408-1.3824 3.1232-3.1232 3.1232z" fill="#FC9381" p-id="1516"></path><path d="M197.2736 820.0192m-41.0112 0a41.0112 41.0112 0 1 0 82.0224 0 41.0112 41.0112 0 1 0-82.0224 0Z" fill="#EFC30A" p-id="1517"></path><path d="M193.1776 815.9232m-36.9152 0a36.9152 36.9152 0 1 0 73.8304 0 36.9152 36.9152 0 1 0-73.8304 0Z" fill="#EC4D1E" p-id="1518"></path><path d="M187.8528 812.3392m-31.5904 0a31.5904 31.5904 0 1 0 63.1808 0 31.5904 31.5904 0 1 0-63.1808 0Z" fill="#F9603D" p-id="1519"></path><path d="M156.2624 812.3392c0 2.4576 0.3072 4.864 0.8704 7.2192 1.9968-37.2736 40.96-36.7616 41.8304-36.7616-3.4816-1.28-7.168-2.048-11.1104-2.048-17.4592 0-31.5904 14.1312-31.5904 31.5904z" fill="#FC9381" p-id="1520"></path><path d="M341.9648 820.0192m-41.0112 0a41.0112 41.0112 0 1 0 82.0224 0 41.0112 41.0112 0 1 0-82.0224 0Z" fill="#EFC30A" p-id="1521"></path><path d="M337.8176 815.9232m-36.9152 0a36.9152 36.9152 0 1 0 73.8304 0 36.9152 36.9152 0 1 0-73.8304 0Z" fill="#EC4D1E" p-id="1522"></path><path d="M332.4928 812.3392m-31.5904 0a31.5904 31.5904 0 1 0 63.1808 0 31.5904 31.5904 0 1 0-63.1808 0Z" fill="#F9603D" p-id="1523"></path><path d="M744.8576 480.1024s96.4608 71.6288 81.3568 209.152c-2.9184 26.4704-14.1312 103.5264-91.392 153.7024 58.0608-22.3232 146.2784-90.9824 140.3904-202.752-7.7824-55.8592-56.9344-162.4064-130.3552-160.1024z" fill="#F48431" p-id="1524"></path><path d="M300.9024 812.3392c0 2.4576 0.3072 4.864 0.8704 7.2192 1.9968-37.2736 40.96-36.7616 41.8304-36.7616-3.4816-1.28-7.168-2.048-11.1104-2.048-17.408 0-31.5904 14.1312-31.5904 31.5904z" fill="#FC9381" p-id="1525"></path><path d="M544.6656 500.0192h20.48v321.1776h-20.48zM603.904 473.7536h20.48v372.1728h-20.48zM678.7584 469.6064h20.48v376.32h-20.48zM747.3664 469.6064h20.48v376.32h-20.48zM813.056 525.9776h20.48v259.7888h-20.48z" fill="#F48431" p-id="1526"></path><path d="M529.3056 514.6624h20.48v287.3856h-20.48zM589.312 473.7536h20.48v369.2032h-20.48zM661.1968 456.8064h20.48v403.1488h-20.48zM731.9552 850.8416c-2.0992-380.8256-0.2048-386.1504 0.6144-388.4032l19.3024 6.912c0.3584-0.9728 0.4096-1.6896 0.4608-1.7408-1.3824 12.1344-0.6656 235.776 0.1536 383.1296l-20.5312 0.1024zM799.232 502.4768h20.48v311.7568h-20.48z" fill="#EC4D1E" p-id="1527"></path><path d="M674.1504 875.52c-119.7568 0-217.1904-97.4336-217.1904-217.1904s97.4336-217.1904 217.1904-217.1904 217.1904 97.4336 217.1904 217.1904S793.9072 875.52 674.1504 875.52z m0-403.6096c-102.8096 0-186.4704 83.6608-186.4704 186.4704S571.3408 844.8 674.1504 844.8s186.4704-83.6608 186.4704-186.4704-83.6608-186.4192-186.4704-186.4192z" fill="#EC4D1E" p-id="1528"></path><path d="M548.7616 493.824c58.3168-46.1824 142.6432-47.1552 186.0608-43.9296-19.3024-5.632-39.6288-8.704-60.672-8.704-119.7568 0-217.1904 97.4336-217.1904 217.1904 0 23.2448 3.7376 45.6704 10.496 66.6624-17.7152-136.4992 46.0288-203.1616 81.3056-231.2192zM857.2416 623.0016c2.2016 11.4688 3.3792 23.296 3.3792 35.3792 0 102.8096-83.6608 186.4704-186.4704 186.4704-26.5216 0-51.712-5.5808-74.5472-15.616h-0.0512c84.1216 49.8176 168.192 16.2304 221.7472-32.8192 64.1024-70.5536 35.9424-173.4144 35.9424-173.4144z" fill="#FC654C" p-id="1529"></path><path d="M361.8816 358.8608H188.672c-40.2944 0-73.0112 32.6656-73.0112 73.0112v242.2784l39.936-241.5616c3.84-23.0912 21.8112-41.3184 44.9024-45.3632l161.3824-28.3648z" fill="#FFEA92" p-id="1530"></path></svg>